<svg width="23" height="24" viewBox="0 0 23 24" fill="none" xmlns="http://www.w3.org/2000/svg">
<path fill-rule="evenodd" clip-rule="evenodd" d="M21.3075 17.3451C13.2309 13.6155 12.4625 17.6478 9.27332 24C9.90721 22.9369 10.7678 22.8044 11.8044 22.7787C15.826 22.6781 19.3343 20.5292 21.3075 17.3451Z" fill="#7633E3"/>
<path fill-rule="evenodd" clip-rule="evenodd" d="M19.4411 3.43712C15.3284 11.9134 15.1894 13.2774 21.7273 16.6068C22.5404 15.0443 23 13.2707 23 11.3909C23 8.599 21.9866 6.04154 20.3048 4.06019C19.6758 3.31924 20.6423 1.14379 21.0786 0.0833135C20.5333 1.20184 19.9838 2.31771 19.4411 3.43712Z" fill="#7633E3"/>
<path fill-rule="evenodd" clip-rule="evenodd" d="M1.31384 6.68811C13.7101 12.7509 13.4102 13.3541 19.6334 0.896061C19.1895 1.77661 18.3638 2.21933 17.7505 1.82536C15.9534 0.670495 13.8103 0 11.5089 0C7.29876 0 3.61786 2.24459 1.61648 5.59219C1.35005 6.038 1.14486 6.20197 0 6.04908C0.438542 6.26091 0.876635 6.47451 1.31384 6.68811Z" fill="#7633E3"/>
<path fill-rule="evenodd" clip-rule="evenodd" d="M8.93493 22.495C13.5823 12.8263 12.408 12.992 0.757308 7.36348C0.279874 8.61584 0.0183567 9.97322 0.0183567 11.3913C0.0183567 16.8049 3.82844 21.3366 8.93493 22.495Z" fill="#7633E3"/>
</svg>
